@startuml
left to right direction
package "Book Manage System" {
class 预约书籍 {
  BookId
  CustomId
  BookingTime
}

class 借出书籍 {
  BookId
  CustomId
  LendTime
  LeastTime
}
class 归还书籍 {
  BookId
  CustomId
  ReturnTime
  Fine
}
class 书籍 {
   BookId
   BookName
   Arthur
   ISBN
   Publish
   price
   BookState
   BookClass
}
class 借书卡{
    CardId
    CustomId
    LostTag
}
class 借书者 {
   CustomId
   Password
   CustomInfo
}
class 学生管理员{
    Stu_ManagerId
    Password
    rent_manage()
    return_manage()
    pro_len_manage()
 }
 class 老师管理员{
    techer_ManagerId
    Password
    card_manage()
    book_manage()
 }
class 系统管理员 {
   RootId
   Password
   manager_manage()
}

借书者"1" -- "0..*"书籍:查询书籍
借书者"1" -- "0,1..2"预约书籍:预约
借书者"1" -- "0,1..2"借出书籍:借阅
借书者"1" -- "0..*"归还书籍:归还、罚金
借书者"1" -- "1" 借书卡:借书卡挂失
借书卡"*"-down-"1"  老师管理员:借书卡补办
书籍  "*"-down-"1"  老师管理员:增删改查
借出书籍 "*"-down-"1" 学生管理员:借出书籍、更新书籍
归还书籍"*"-down-"1"  学生管理员:归还书籍、更新书籍、超期罚金
预约书籍"*"-down-"1"  学生管理员:查询预约、取消预约
借书者  "*"-down-"1"  系统管理员:增删改查
学生管理员 --老师管理员:审阅
老师管理员 --系统管理员:增删改查
}

@enduml